<svg width="504" height="504" viewBox="0 0 504 504" fill="none" xmlns="http://www.w3.org/2000/svg">
<path d="M456.866 432.737L384.681 362.162L382.989 359.589C379.844 356.457 375.542 354.693 371.053 354.693C366.563 354.693 362.261 356.457 359.116 359.589C297.769 415.87 203.241 418.929 138.222 366.738C73.2031 314.547 57.869 223.301 102.389 153.514C146.91 83.7264 237.47 57.0538 314.01 91.1849C390.55 125.316 429.32 209.66 404.607 288.279C402.828 293.959 404.282 300.136 408.424 304.482C412.565 308.829 418.763 310.686 424.684 309.353C430.605 308.02 435.349 303.7 437.128 298.02C466.67 204.722 422.053 104.319 332.138 61.7622C242.224 19.2058 133.998 47.2673 77.4701 127.794C20.9427 208.32 33.0788 317.145 106.028 383.87C178.976 450.594 290.845 455.194 369.267 394.693L433.181 457.181C439.782 463.606 450.453 463.606 457.054 457.181C463.649 450.664 463.649 440.173 457.054 433.656L456.866 432.737Z" fill="#00C2DB"/>
</svg>
